<svg version="1.1" id="Layer_1" xmlns="http://www.w3.org/2000/svg" xmlns:xlink="http://www.w3.org/1999/xlink" x="0px" y="0px"
	 width="100%" viewBox="0 0 768 576" enable-background="new 0 0 768 576" xml:space="preserve">
<path fill="#000000" opacity="1.000000" stroke="none" 
	d="
M240.904572,299.331879 
	C242.830307,296.940399 244.981613,297.637512 247.021622,298.245605 
	C250.409180,299.255402 253.490692,300.968506 256.199615,303.200897 
	C262.277740,308.209778 268.399841,308.423950 274.874817,303.971100 
	C277.472565,302.184631 280.296234,300.719208 283.059357,299.183716 
	C284.541473,298.360077 286.175781,297.737823 285.263031,295.087463 
	C282.236969,295.459747 279.961945,297.373352 277.563080,299.003448 
	C268.335449,305.273926 262.528961,305.240082 253.302216,298.893127 
	C251.659576,297.763184 249.935211,296.752441 248.285995,295.631592 
	C246.084686,294.135559 242.271042,295.167389 241.253281,292.525330 
	C239.894165,288.997101 240.505203,285.033203 241.046677,281.072327 
	C245.351379,279.808441 248.989578,281.340637 252.463562,283.328735 
	C254.622772,284.564423 256.634888,286.070068 258.651123,287.539551 
	C261.211578,289.405670 264.133972,290.359406 267.132599,289.636017 
	C274.021301,287.974152 279.522583,283.524597 285.394592,279.858032 
	C285.636017,279.707306 285.491333,278.938263 285.550323,278.132843 
	C282.503265,277.400421 280.593262,279.449829 278.547668,280.833221 
	C267.457794,288.333221 263.412415,288.350128 252.472153,280.703583 
	C250.135071,279.070099 247.764984,277.640472 244.845764,277.204895 
	C242.915207,276.916840 240.381927,276.542236 240.959930,273.762268 
	C241.664261,270.374786 244.219955,272.097900 246.195297,272.394165 
	C250.644928,273.061646 254.153122,275.624634 257.743225,278.043396 
	C264.697906,282.728882 267.107910,282.775970 273.924713,277.822113 
	C277.604065,275.148285 281.371674,272.778137 285.878998,271.862488 
	C289.317139,271.164001 291.187164,272.195404 291.242126,276.158447 
	C291.311340,281.153198 291.748932,285.702515 284.787231,286.662445 
	C282.061127,287.038391 279.558411,289.440826 277.076172,291.102905 
	C269.256012,296.339172 261.645599,296.407074 254.010300,290.656464 
	C251.859802,289.036835 249.835602,286.893219 246.908890,286.755615 
	C245.649460,288.739136 246.790833,289.614716 248.049240,290.110016 
	C252.123291,291.713440 255.597427,294.303497 259.251831,296.610046 
	C264.061493,299.645752 268.753662,299.108826 273.193024,295.800171 
	C277.237122,292.786072 281.540070,290.409180 286.493347,289.173004 
	C289.840668,288.337616 291.025024,289.498566 291.217499,292.794281 
	C291.673737,300.607910 291.649963,300.668243 284.360413,304.165558 
	C281.823212,305.382843 279.438812,306.951263 277.083191,308.508453 
	C269.386902,313.596039 261.856628,313.464417 254.319748,308.128906 
	C251.834000,306.369202 249.515686,304.129333 246.258545,303.826416 
	C244.966003,306.141602 246.544342,306.906525 247.866028,307.428650 
	C251.313477,308.790527 254.338882,310.821655 257.344208,312.917603 
	C262.930023,316.813263 268.557312,316.545410 274.141357,312.957550 
	C277.935791,310.519531 281.817719,308.240356 286.134857,306.900024 
	C287.768677,306.392822 289.999023,305.598297 290.754456,308.156555 
	C291.517273,310.740021 289.382751,311.093231 287.575958,311.567932 
	C283.631653,312.604279 280.399353,315.026642 277.004120,317.108368 
	C269.492889,321.713806 262.069366,322.148895 254.549576,317.073547 
	C250.975449,314.661255 247.449005,312.099945 243.102341,311.108521 
	C241.110352,310.654175 240.653061,309.088074 240.687363,307.269440 
	C240.734467,304.773102 240.758957,302.276367 240.904572,299.331879 
z"/>
<path fill="#000000" opacity="1.000000" stroke="none" 
	d="
M353.301392,278.217316 
	C349.546112,283.338226 346.081696,288.226105 342.399231,292.943848 
	C340.667389,295.162598 340.728882,296.853180 342.446930,299.075806 
	C346.616272,304.469452 350.550873,310.044800 354.563690,315.558868 
	C355.528259,316.884338 356.740356,318.090668 356.925201,319.839508 
	C351.365753,322.625305 347.205139,321.806915 343.550262,317.159424 
	C340.196167,312.894470 336.907898,308.577728 333.061127,303.598450 
	C329.579346,308.171021 326.558441,312.052979 323.630493,316.003815 
	C319.367065,321.756622 317.143280,322.481232 308.969879,320.166199 
	C312.142456,314.377747 316.551483,309.672882 320.324341,304.568298 
	C326.790039,295.820435 326.881348,295.913483 320.153595,287.119659 
	C316.377991,282.184540 312.669708,277.197937 308.775848,272.028442 
	C316.558929,269.521637 319.373352,270.312683 323.288940,275.541351 
	C326.343842,279.620605 329.426727,283.678894 332.760803,288.095795 
	C336.934448,284.470459 339.723816,280.483795 342.111298,276.454376 
	C345.715515,270.371582 350.656403,269.980377 356.761841,271.429657 
	C357.139252,274.445404 354.646301,275.856415 353.301392,278.217316 
z"/>
<path fill="#000000" opacity="1.000000" stroke="none" 
	d="
M219.879974,299.808960 
	C219.038513,306.636749 220.647949,313.119781 219.160980,320.770386 
	C208.068405,311.023560 197.778214,301.981812 186.941788,292.460052 
	C185.801666,298.298523 186.446304,303.402069 186.347916,308.453949 
	C186.221451,314.947113 184.793762,316.951141 177.440430,319.630310 
	C177.440430,303.812988 177.440430,288.198761 177.440430,272.584534 
	C177.817139,272.319122 178.193832,272.053680 178.570541,271.788269 
	C188.916321,281.175140 199.262100,290.562012 210.657059,300.900848 
	C210.657059,294.225769 210.651077,288.827606 210.658554,283.429413 
	C210.668030,276.592865 211.710968,275.144958 219.881638,271.720123 
	C219.881638,281.238739 219.881638,290.288208 219.879974,299.808960 
z"/>
<path fill="#000000" opacity="1.000000" stroke="none" 
	d="
M457.869324,321.002380 
	C453.392731,320.982697 449.396667,320.928772 445.401062,320.954285 
	C441.813019,320.977203 441.607971,318.685852 441.596619,315.920197 
	C441.585052,313.097290 442.396179,311.574585 445.550903,311.649536 
	C451.041992,311.779999 456.538971,311.655792 462.033478,311.652069 
	C465.648682,311.649597 468.467377,310.320709 468.516632,306.363434 
	C468.567627,302.263123 465.631348,301.203705 462.038971,301.227112 
	C456.711273,301.261780 451.380188,301.098938 446.055939,301.233521 
	C442.462738,301.324310 441.571564,299.600403 441.563782,296.323395 
	C441.555634,292.899841 442.770813,291.503143 446.242371,291.659363 
	C450.396088,291.846313 454.565643,291.652954 458.727783,291.689758 
	C462.403534,291.722229 464.437958,289.812531 464.549683,286.299377 
	C464.669006,282.547485 462.633270,280.390900 458.748352,280.339386 
	C454.752899,280.286407 450.751984,280.189697 446.761780,280.337006 
	C443.402313,280.461029 441.541901,279.708679 441.516876,275.707672 
	C441.490662,271.526428 443.378510,270.561798 447.001221,270.740479 
	C450.489349,270.912537 453.992645,270.759338 457.489014,270.785645 
	C469.655304,270.877136 475.754608,278.476532 473.169037,290.486511 
	C472.704224,292.645691 472.025909,294.437653 473.842499,296.456238 
	C478.309540,301.419891 478.719635,307.264252 476.366608,313.243927 
	C473.983276,319.300659 468.430511,320.273132 462.841309,320.891266 
	C461.358246,321.055298 459.847870,320.972290 457.869324,321.002380 
z"/>
<path fill="#000000" opacity="1.000000" stroke="none" 
	d="
M603.935242,321.241760 
	C597.126282,321.239166 590.804443,321.100800 584.492126,321.285217 
	C580.747498,321.394623 578.950134,320.123291 578.980957,316.184479 
	C579.086426,302.718323 579.092896,289.250793 579.031616,275.784302 
	C579.016235,272.411957 580.370483,270.979553 583.778809,270.999573 
	C587.170959,271.019501 588.443542,272.373871 588.392395,275.806915 
	C588.238708,286.112671 588.487976,296.425476 588.262695,306.728577 
	C588.175293,310.726562 589.632874,312.023712 593.482361,311.839874 
	C598.458679,311.602203 603.458130,311.891174 608.441772,311.748749 
	C611.888000,311.650299 613.192322,313.132477 613.168457,316.507568 
	C613.144775,319.852264 611.864014,321.494812 608.415405,321.248840 
	C607.092285,321.154480 605.756470,321.238831 603.935242,321.241760 
z"/>
<path fill="#000000" opacity="1.000000" stroke="none" 
	d="
M528.066650,298.999756 
	C528.070862,291.001862 528.150452,283.502808 528.043091,276.006439 
	C527.991333,272.398651 529.456360,270.931885 533.111206,270.988434 
	C536.852600,271.046295 537.403870,273.070343 537.376343,276.158478 
	C537.284363,286.488190 537.452881,296.820984 537.289612,307.148926 
	C537.234680,310.623932 538.449890,311.937469 541.914551,311.817871 
	C547.073486,311.639923 552.246277,311.889404 557.407776,311.752533 
	C560.851624,311.661224 562.192261,313.130554 562.156982,316.514587 
	C562.121826,319.889648 560.715942,321.306641 557.317139,321.260681 
	C549.154175,321.150360 540.987549,321.142090 532.824829,321.261108 
	C529.389465,321.311188 527.997925,319.842773 528.046875,316.494781 
	C528.129639,310.830872 528.066833,305.164856 528.066650,298.999756 
z"/>
<path fill="#000000" opacity="1.000000" stroke="none" 
	d="
M391.383728,280.321899 
	C387.572296,280.102295 387.248138,282.240570 387.259949,284.853394 
	C387.305115,294.849365 387.190826,304.846558 387.306671,314.841339 
	C387.348602,318.457703 386.851898,321.035248 382.320679,320.992310 
	C377.952545,320.950867 377.688263,318.326324 377.703430,315.015228 
	C377.762939,302.020508 377.823181,289.023895 377.647705,276.031158 
	C377.595520,272.168182 378.871918,270.585052 382.812500,270.738037 
	C388.302216,270.951233 393.807526,270.875610 399.303406,270.774139 
	C402.793335,270.709686 403.363678,272.682251 403.365601,275.578461 
	C403.367493,278.461426 402.872345,280.516174 399.325867,280.326660 
	C396.834259,280.193481 394.329285,280.310455 391.383728,280.321899 
z"/>
<path fill="#000000" opacity="1.000000" stroke="none" 
	d="
M506.801941,312.201599 
	C505.452026,316.648438 501.781403,318.010956 498.636261,320.291870 
	C498.231323,319.568909 497.813538,319.170197 497.811737,318.769623 
	C497.746307,304.136749 497.762573,289.503326 497.652802,274.870880 
	C497.629395,271.749817 499.124146,270.888916 501.940002,270.839630 
	C505.172363,270.783051 506.978302,271.839691 506.955322,275.363953 
	C506.876221,287.503387 506.883179,299.643341 506.801941,312.201599 
z"/>
</svg>